<svg xmlns="http://www.w3.org/2000/svg"
     width="32" height="32"
     viewBox="0 0 32 32"
     shape-rendering="crispEdges">
  <rect x="7" y="6" width="18" height="1" fill="currentColor"/>
  <rect x="6" y="7" width="20" height="1" fill="currentColor"/>
  <rect x="6" y="8" width="4" height="1" fill="currentColor"/>
  <rect x="12" y="8" width="8" height="1" fill="currentColor"/>
  <rect x="22" y="8" width="4" height="1" fill="currentColor"/>
  <rect x="6" y="9" width="3" height="2" fill="currentColor"/>
  <rect x="13" y="9" width="6" height="2" fill="currentColor"/>
  <rect x="23" y="9" width="3" height="2" fill="currentColor"/>
  <rect x="6" y="11" width="4" height="1" fill="currentColor"/>
  <rect x="12" y="11" width="8" height="1" fill="currentColor"/>
  <rect x="22" y="11" width="4" height="1" fill="currentColor"/>
  <rect x="6" y="12" width="20" height="2" fill="currentColor"/>
  <rect x="6" y="14" width="4" height="1" fill="currentColor"/>
  <rect x="12" y="14" width="8" height="1" fill="currentColor"/>
  <rect x="22" y="14" width="4" height="1" fill="currentColor"/>
  <rect x="6" y="15" width="3" height="2" fill="currentColor"/>
  <rect x="13" y="15" width="6" height="2" fill="currentColor"/>
  <rect x="23" y="15" width="3" height="2" fill="currentColor"/>
  <rect x="6" y="17" width="4" height="1" fill="currentColor"/>
  <rect x="12" y="17" width="8" height="1" fill="currentColor"/>
  <rect x="22" y="17" width="4" height="1" fill="currentColor"/>
  <rect x="6" y="18" width="20" height="2" fill="currentColor"/>
  <rect x="6" y="20" width="4" height="1" fill="currentColor"/>
  <rect x="12" y="20" width="8" height="1" fill="currentColor"/>
  <rect x="22" y="20" width="4" height="1" fill="currentColor"/>
  <rect x="6" y="21" width="3" height="2" fill="currentColor"/>
  <rect x="13" y="21" width="6" height="2" fill="currentColor"/>
  <rect x="23" y="21" width="3" height="2" fill="currentColor"/>
  <rect x="6" y="23" width="4" height="1" fill="currentColor"/>
  <rect x="12" y="23" width="8" height="1" fill="currentColor"/>
  <rect x="22" y="23" width="4" height="1" fill="currentColor"/>
  <rect x="6" y="24" width="20" height="1" fill="currentColor"/>
  <rect x="7" y="25" width="18" height="1" fill="currentColor"/>
</svg>