<svg xmlns="http://www.w3.org/2000/svg"
     width="32" height="32"
     viewBox="0 0 32 32"
     shape-rendering="crispEdges">
  <rect x="15" y="6" width="2" height="1" fill="currentColor"/>
  <rect x="14" y="7" width="4" height="2" fill="currentColor"/>
  <rect x="7" y="9" width="2" height="1" fill="currentColor"/>
  <rect x="15" y="9" width="2" height="1" fill="currentColor"/>
  <rect x="23" y="9" width="2" height="1" fill="currentColor"/>
  <rect x="6" y="10" width="4" height="2" fill="currentColor"/>
  <rect x="14" y="10" width="4" height="2" fill="currentColor"/>
  <rect x="22" y="10" width="4" height="2" fill="currentColor"/>
  <rect x="7" y="12" width="2" height="2" fill="currentColor"/>
  <rect x="13" y="12" width="6" height="2" fill="currentColor"/>
  <rect x="23" y="12" width="2" height="2" fill="currentColor"/>
  <rect x="7" y="14" width="3" height="1" fill="currentColor"/>
  <rect x="12" y="14" width="8" height="1" fill="currentColor"/>
  <rect x="22" y="14" width="3" height="1" fill="currentColor"/>
  <rect x="7" y="15" width="18" height="2" fill="currentColor"/>
  <rect x="8" y="17" width="16" height="4" fill="currentColor"/>
  <rect x="9" y="21" width="14" height="1" fill="currentColor"/>
  <rect x="10" y="23" width="12" height="2" fill="currentColor"/>
</svg>