<svg xmlns="http://www.w3.org/2000/svg"
     width="32" height="32"
     viewBox="0 0 32 32"
     shape-rendering="crispEdges">
  <rect x="7" y="6" width="6" height="1" fill="currentColor"/>
  <rect x="21" y="6" width="1" height="1" fill="currentColor"/>
  <rect x="6" y="7" width="7" height="1" fill="currentColor"/>
  <rect x="21" y="7" width="2" height="1" fill="currentColor"/>
  <rect x="6" y="8" width="2" height="1" fill="currentColor"/>
  <rect x="21" y="8" width="3" height="1" fill="currentColor"/>
  <rect x="6" y="9" width="2" height="1" fill="currentColor"/>
  <rect x="14" y="9" width="11" height="1" fill="currentColor"/>
  <rect x="6" y="10" width="2" height="1" fill="currentColor"/>
  <rect x="12" y="10" width="14" height="1" fill="currentColor"/>
  <rect x="6" y="11" width="2" height="1" fill="currentColor"/>
  <rect x="11" y="11" width="15" height="1" fill="currentColor"/>
  <rect x="6" y="12" width="2" height="1" fill="currentColor"/>
  <rect x="10" y="12" width="15" height="1" fill="currentColor"/>
  <rect x="6" y="13" width="2" height="1" fill="currentColor"/>
  <rect x="10" y="13" width="6" height="1" fill="currentColor"/>
  <rect x="21" y="13" width="3" height="1" fill="currentColor"/>
  <rect x="6" y="14" width="2" height="1" fill="currentColor"/>
  <rect x="9" y="14" width="5" height="1" fill="currentColor"/>
  <rect x="21" y="14" width="2" height="1" fill="currentColor"/>
  <rect x="6" y="15" width="2" height="1" fill="currentColor"/>
  <rect x="9" y="15" width="4" height="1" fill="currentColor"/>
  <rect x="21" y="15" width="1" height="1" fill="currentColor"/>
  <rect x="6" y="16" width="2" height="1" fill="currentColor"/>
  <rect x="9" y="16" width="3" height="1" fill="currentColor"/>
  <rect x="6" y="17" width="2" height="1" fill="currentColor"/>
  <rect x="9" y="17" width="2" height="1" fill="currentColor"/>
  <rect x="24" y="17" width="2" height="1" fill="currentColor"/>
  <rect x="6" y="18" width="2" height="1" fill="currentColor"/>
  <rect x="9" y="18" width="2" height="1" fill="currentColor"/>
  <rect x="12" y="18" width="2" height="1" fill="currentColor"/>
  <rect x="17" y="18" width="2" height="1" fill="currentColor"/>
  <rect x="20" y="18" width="2" height="1" fill="currentColor"/>
  <rect x="24" y="18" width="2" height="1" fill="currentColor"/>
  <rect x="6" y="19" width="2" height="1" fill="currentColor"/>
  <rect x="9" y="19" width="2" height="1" fill="currentColor"/>
  <rect x="12" y="19" width="1" height="1" fill="currentColor"/>
  <rect x="14" y="19" width="1" height="1" fill="currentColor"/>
  <rect x="16" y="19" width="1" height="1" fill="currentColor"/>
  <rect x="20" y="19" width="1" height="1" fill="currentColor"/>
  <rect x="22" y="19" width="1" height="1" fill="currentColor"/>
  <rect x="24" y="19" width="2" height="1" fill="currentColor"/>
  <rect x="6" y="20" width="2" height="1" fill="currentColor"/>
  <rect x="12" y="20" width="2" height="1" fill="currentColor"/>
  <rect x="16" y="20" width="1" height="1" fill="currentColor"/>
  <rect x="18" y="20" width="1" height="1" fill="currentColor"/>
  <rect x="20" y="20" width="1" height="1" fill="currentColor"/>
  <rect x="22" y="20" width="1" height="1" fill="currentColor"/>
  <rect x="24" y="20" width="2" height="1" fill="currentColor"/>
  <rect x="6" y="21" width="2" height="1" fill="currentColor"/>
  <rect x="12" y="21" width="1" height="1" fill="currentColor"/>
  <rect x="17" y="21" width="2" height="1" fill="currentColor"/>
  <rect x="20" y="21" width="1" height="1" fill="currentColor"/>
  <rect x="22" y="21" width="1" height="1" fill="currentColor"/>
  <rect x="24" y="21" width="2" height="1" fill="currentColor"/>
  <rect x="6" y="22" width="2" height="2" fill="currentColor"/>
  <rect x="24" y="22" width="2" height="2" fill="currentColor"/>
  <rect x="6" y="24" width="20" height="1" fill="currentColor"/>
  <rect x="7" y="25" width="18" height="1" fill="currentColor"/>
</svg>