<svg xmlns="http://www.w3.org/2000/svg"
     width="32" height="32"
     viewBox="0 0 32 32"
     shape-rendering="crispEdges">
  <rect x="12" y="6" width="8" height="1" fill="currentColor"/>
  <rect x="10" y="7" width="12" height="1" fill="currentColor"/>
  <rect x="9" y="8" width="14" height="1" fill="currentColor"/>
  <rect x="8" y="9" width="16" height="1" fill="currentColor"/>
  <rect x="7" y="10" width="4" height="1" fill="currentColor"/>
  <rect x="13" y="10" width="7" height="1" fill="currentColor"/>
  <rect x="22" y="10" width="3" height="1" fill="currentColor"/>
  <rect x="7" y="11" width="4" height="1" fill="currentColor"/>
  <rect x="14" y="11" width="1" height="1" fill="currentColor"/>
  <rect x="18" y="11" width="1" height="1" fill="currentColor"/>
  <rect x="22" y="11" width="3" height="1" fill="currentColor"/>
  <rect x="6" y="12" width="5" height="1" fill="currentColor"/>
  <rect x="22" y="12" width="4" height="1" fill="currentColor"/>
  <rect x="6" y="13" width="4" height="5" fill="currentColor"/>
  <rect x="23" y="13" width="3" height="5" fill="currentColor"/>
  <rect x="6" y="18" width="5" height="1" fill="currentColor"/>
  <rect x="22" y="18" width="4" height="1" fill="currentColor"/>
  <rect x="6" y="19" width="6" height="1" fill="currentColor"/>
  <rect x="21" y="19" width="5" height="1" fill="currentColor"/>
  <rect x="7" y="20" width="2" height="1" fill="currentColor"/>
  <rect x="11" y="20" width="3" height="1" fill="currentColor"/>
  <rect x="18" y="20" width="7" height="1" fill="currentColor"/>
  <rect x="7" y="21" width="3" height="1" fill="currentColor"/>
  <rect x="12" y="21" width="2" height="1" fill="currentColor"/>
  <rect x="19" y="21" width="6" height="1" fill="currentColor"/>
  <rect x="8" y="22" width="2" height="1" fill="currentColor"/>
  <rect x="19" y="22" width="5" height="1" fill="currentColor"/>
  <rect x="9" y="23" width="3" height="1" fill="currentColor"/>
  <rect x="19" y="23" width="4" height="1" fill="currentColor"/>
  <rect x="10" y="24" width="4" height="1" fill="currentColor"/>
  <rect x="19" y="24" width="3" height="1" fill="currentColor"/>
  <rect x="12" y="25" width="2" height="1" fill="currentColor"/>
  <rect x="19" y="25" width="2" height="1" fill="currentColor"/>
</svg>