<svg xmlns="http://www.w3.org/2000/svg"
     width="32" height="32"
     viewBox="0 0 32 32"
     shape-rendering="crispEdges">
  <rect x="15" y="6" width="2" height="1" fill="currentColor"/>
  <rect x="14" y="7" width="4" height="1" fill="currentColor"/>
  <rect x="13" y="8" width="6" height="1" fill="currentColor"/>
  <rect x="12" y="9" width="8" height="1" fill="currentColor"/>
  <rect x="11" y="10" width="10" height="1" fill="currentColor"/>
  <rect x="10" y="11" width="12" height="1" fill="currentColor"/>
  <rect x="9" y="12" width="14" height="1" fill="currentColor"/>
  <rect x="8" y="13" width="16" height="1" fill="currentColor"/>
  <rect x="7" y="14" width="18" height="1" fill="currentColor"/>
  <rect x="6" y="15" width="20" height="1" fill="currentColor"/>
  <rect x="9" y="16" width="14" height="5" fill="currentColor"/>
  <rect x="9" y="21" width="5" height="4" fill="currentColor"/>
  <rect x="18" y="21" width="5" height="4" fill="currentColor"/>
  <rect x="10" y="25" width="4" height="1" fill="currentColor"/>
  <rect x="18" y="25" width="4" height="1" fill="currentColor"/>
</svg>