<svg xmlns="http://www.w3.org/2000/svg"
     width="32" height="32"
     viewBox="0 0 32 32"
     shape-rendering="crispEdges">
  <rect x="10" y="7" width="12" height="1" fill="currentColor"/>
  <rect x="9" y="8" width="14" height="1" fill="currentColor"/>
  <rect x="9" y="9" width="3" height="1" fill="currentColor"/>
  <rect x="20" y="9" width="3" height="1" fill="currentColor"/>
  <rect x="9" y="10" width="2" height="3" fill="currentColor"/>
  <rect x="21" y="10" width="2" height="3" fill="currentColor"/>
  <rect x="7" y="13" width="6" height="1" fill="currentColor"/>
  <rect x="21" y="13" width="2" height="1" fill="currentColor"/>
  <rect x="8" y="14" width="4" height="1" fill="currentColor"/>
  <rect x="9" y="15" width="2" height="1" fill="currentColor"/>
  <rect x="21" y="16" width="2" height="1" fill="currentColor"/>
  <rect x="20" y="17" width="4" height="1" fill="currentColor"/>
  <rect x="9" y="18" width="2" height="1" fill="currentColor"/>
  <rect x="19" y="18" width="6" height="1" fill="currentColor"/>
  <rect x="9" y="19" width="2" height="3" fill="currentColor"/>
  <rect x="21" y="19" width="2" height="3" fill="currentColor"/>
  <rect x="9" y="22" width="3" height="1" fill="currentColor"/>
  <rect x="20" y="22" width="3" height="1" fill="currentColor"/>
  <rect x="9" y="23" width="14" height="1" fill="currentColor"/>
  <rect x="10" y="24" width="12" height="1" fill="currentColor"/>
</svg>