<svg xmlns="http://www.w3.org/2000/svg"
     width="32" height="32"
     viewBox="0 0 32 32"
     shape-rendering="crispEdges">
<rect x="7" y="6" width="2" height="1" fill="currentColor"/>
<rect x="6" y="7" width="4" height="1" fill="currentColor"/>
<rect x="25" y="7" width="1" height="1" fill="currentColor"/>
<rect x="6" y="8" width="11" height="1" fill="currentColor"/>
<rect x="23" y="8" width="3" height="1" fill="currentColor"/>
<rect x="7" y="9" width="2" height="1" fill="currentColor"/>
<rect x="10" y="9" width="16" height="1" fill="currentColor"/>
<rect x="7" y="10" width="3" height="1" fill="currentColor"/>
<rect x="17" y="10" width="6" height="1" fill="currentColor"/>
<rect x="24" y="10" width="2" height="1" fill="currentColor"/>
<rect x="7" y="11" width="3" height="1" fill="currentColor"/>
<rect x="24" y="11" width="2" height="1" fill="currentColor"/>
<rect x="7" y="12" width="2" height="6" fill="currentColor"/>
<rect x="24" y="12" width="2" height="6" fill="currentColor"/>
<rect x="7" y="18" width="2" height="1" fill="currentColor"/>
<rect x="10" y="18" width="7" height="1" fill="currentColor"/>
<rect x="23" y="18" width="3" height="1" fill="currentColor"/>
<rect x="7" y="19" width="18" height="1" fill="currentColor"/>
<rect x="7" y="20" width="3" height="1" fill="currentColor"/>
<rect x="17" y="20" width="6" height="1" fill="currentColor"/>
<rect x="7" y="21" width="2" height="5" fill="currentColor"/>
</svg>